<svg xmlns="http://www.w3.org/2000/svg" xmlns:xlink="http://www.w3.org/1999/xlink" fill="#06178e" stroke="#000000" viewBox="-1681 -6701 8482 8482"><path stroke-width="9" d="M 0 100 l 4.898587196589413e-15 -80 l 80 0 l 4.898587196589413e-15 -80 l -80 -9.797174393178826e-15 l -80 -9.797174393178826e-15 l 4.898587196589413e-15 -80 l 80 0 l 4.898587196589413e-15 -80 l 80 0 l 4.898587196589413e-15 80 l 80 0 l 4.898587196589413e-15 -80 l 4.898587196589413e-15 -80 l 80 0 l 4.898587196589413e-15 80 l 80 0 l 4.898587196589413e-15 -80 l 80 0 l 4.898587196589413e-15 -80 l -80 -9.797174393178826e-15 l -80 -9.797174393178826e-15 l 4.898587196589413e-15 -80 l 80 0 l 4.898587196589413e-15 -80 l -80 -9.797174393178826e-15 l 4.898587196589413e-15 -80 l -80 -9.797174393178826e-15 l -1.4695761589768237e-14 80 l -1.4695761589768237e-14 80 l -80 -9.797174393178826e-15 l 4.898587196589413e-15 -80 l -80 -9.797174393178826e-15 l -80 -9.797174393178826e-15 l 4.898587196589413e-15 -80 l -80 -9.797174393178826e-15 l -1.4695761589768237e-14 80 l -1.4695761589768237e-14 80 l -80 -9.797174393178826e-15 l 4.898587196589413e-15 -80 l -80 -9.797174393178826e-15 l 4.898587196589413e-15 -80 l 80 0 l 4.898587196589413e-15 -80 l -80 -9.797174393178826e-15 l -80 -9.797174393178826e-15 l 4.898587196589413e-15 -80 l 80 0 l 4.898587196589413e-15 -80 l 80 0 l 4.898587196589413e-15 80 l 80 0 l 4.898587196589413e-15 -80 l 4.898587196589413e-15 -80 l 80 0 l 4.898587196589413e-15 80 l 80 0 l 4.898587196589413e-15 -80 l 80 0 l 4.898587196589413e-15 -80 l -80 -9.797174393178826e-15 l -80 -9.797174393178826e-15 l 4.898587196589413e-15 -80 l 80 0 l 4.898587196589413e-15 -80 l 80 0 l 4.898587196589413e-15 80 l 80 0 l 4.898587196589413e-15 -80 l 4.898587196589413e-15 -80 l 80 0 l 4.898587196589413e-15 80 l 80 0 l 4.898587196589413e-15 80 l -80 9.797174393178826e-15 l 4.898587196589413e-15 80 l 80 0 l 80 0 l 4.898587196589413e-15 80 l -80 9.797174393178826e-15 l 4.898587196589413e-15 80 l 80 0 l 4.898587196589413e-15 80 l 80 0 l 4.898587196589413e-15 -80 l 4.898587196589413e-15 -80 l 80 0 l 4.898587196589413e-15 80 l 80 0 l 4.898587196589413e-15 -80 l 80 0 l 4.898587196589413e-15 -80 l -80 -9.797174393178826e-15 l -80 -9.797174393178826e-15 l 4.898587196589413e-15 -80 l 80 0 l 4.898587196589413e-15 -80 l 4.898587196589413e-15 -80 l 80 0 l 4.898587196589413e-15 -80 l -80 -9.797174393178826e-15 l -80 -9.797174393178826e-15 l 4.898587196589413e-15 -80 l 80 0 l 4.898587196589413e-15 -80 l 80 0 l 4.898587196589413e-15 80 l 80 0 l 4.898587196589413e-15 -80 l 4.898587196589413e-15 -80 l 80 0 l 4.898587196589413e-15 80 l 80 0 l 4.898587196589413e-15 80 l -80 9.797174393178826e-15 l 4.898587196589413e-15 80 l 80 0 l 80 0 l 4.898587196589413e-15 80 l -80 9.797174393178826e-15 l 4.898587196589413e-15 80 l 80 0 l 4.898587196589413e-15 80 l 80 0 l 4.898587196589413e-15 -80 l 4.898587196589413e-15 -80 l 80 0 l 4.898587196589413e-15 80 l 80 0 l 4.898587196589413e-15 -80 l 80 0 l 4.898587196589413e-15 -80 l -80 -9.797174393178826e-15 l -80 -9.797174393178826e-15 l 4.898587196589413e-15 -80 l 80 0 l 4.898587196589413e-15 -80 l 80 0 l 4.898587196589413e-15 80 l 80 0 l 4.898587196589413e-15 -80 l 4.898587196589413e-15 -80 l 80 0 l 4.898587196589413e-15 80 l 80 0 l 4.898587196589413e-15 -80 l 80 0 l 4.898587196589413e-15 -80 l -80 -9.797174393178826e-15 l -80 -9.797174393178826e-15 l 4.898587196589413e-15 -80 l 80 0 l 4.898587196589413e-15 -80 l -80 -9.797174393178826e-15 l 4.898587196589413e-15 -80 l -80 -9.797174393178826e-15 l -1.4695761589768237e-14 80 l -1.4695761589768237e-14 80 l -80 -9.797174393178826e-15 l 4.898587196589413e-15 -80 l -80 -9.797174393178826e-15 l -80 -9.797174393178826e-15 l 4.898587196589413e-15 -80 l -80 -9.797174393178826e-15 l -1.4695761589768237e-14 80 l -1.4695761589768237e-14 80 l -80 -9.797174393178826e-15 l 4.898587196589413e-15 -80 l -80 -9.797174393178826e-15 l 4.898587196589413e-15 -80 l 80 0 l 4.898587196589413e-15 -80 l -80 -9.797174393178826e-15 l -80 -9.797174393178826e-15 l 4.898587196589413e-15 -80 l 80 0 l 4.898587196589413e-15 -80 l 80 0 l 4.898587196589413e-15 80 l 80 0 l 4.898587196589413e-15 -80 l 4.898587196589413e-15 -80 l 80 0 l 4.898587196589413e-15 80 l 80 0 l 4.898587196589413e-15 -80 l 80 0 l 4.898587196589413e-15 -80 l -80 -9.797174393178826e-15 l -80 -9.797174393178826e-15 l 4.898587196589413e-15 -80 l 80 0 l 4.898587196589413e-15 -80 l -80 -9.797174393178826e-15 l 4.898587196589413e-15 -80 l -80 -9.797174393178826e-15 l -1.4695761589768237e-14 80 l -1.4695761589768237e-14 80 l -80 -9.797174393178826e-15 l 4.898587196589413e-15 -80 l -80 -9.797174393178826e-15 l 4.898587196589413e-15 -80 l 80 0 l 4.898587196589413e-15 -80 l -80 -9.797174393178826e-15 l -80 -9.797174393178826e-15 l 4.898587196589413e-15 -80 l 80 0 l 4.898587196589413e-15 -80 l -80 -9.797174393178826e-15 l 4.898587196589413e-15 -80 l -80 -9.797174393178826e-15 l -1.4695761589768237e-14 80 l -1.4695761589768237e-14 80 l -80 -9.797174393178826e-15 l 4.898587196589413e-15 -80 l -80 -9.797174393178826e-15 l -1.4695761589768237e-14 80 l -80 -9.797174393178826e-15 l -1.4695761589768237e-14 80 l 80 0 l 80 0 l 4.898587196589413e-15 80 l -80 9.797174393178826e-15 l 4.898587196589413e-15 80 l 4.898587196589413e-15 80 l -80 9.797174393178826e-15 l 4.898587196589413e-15 80 l 80 0 l 80 0 l 4.898587196589413e-15 80 l -80 9.797174393178826e-15 l 4.898587196589413e-15 80 l -80 9.797174393178826e-15 l -1.4695761589768237e-14 -80 l -80 9.797174393178826e-15 l 4.898587196589413e-15 80 l 4.898587196589413e-15 80 l -80 9.797174393178826e-15 l -1.4695761589768237e-14 -80 l -80 9.797174393178826e-15 l -1.4695761589768237e-14 -80 l 80 0 l 4.898587196589413e-15 -80 l -80 -9.797174393178826e-15 l -80 -9.797174393178826e-15 l 4.898587196589413e-15 -80 l 80 0 l 4.898587196589413e-15 -80 l -80 -9.797174393178826e-15 l 4.898587196589413e-15 -80 l -80 -9.797174393178826e-15 l -1.4695761589768237e-14 80 l -1.4695761589768237e-14 80 l -80 -9.797174393178826e-15 l 4.898587196589413e-15 -80 l -80 -9.797174393178826e-15 l -80 -9.797174393178826e-15 l 4.898587196589413e-15 -80 l -80 -9.797174393178826e-15 l -1.4695761589768237e-14 80 l -1.4695761589768237e-14 80 l -80 -9.797174393178826e-15 l 4.898587196589413e-15 -80 l -80 -9.797174393178826e-15 l 4.898587196589413e-15 -80 l 80 0 l 4.898587196589413e-15 -80 l -80 -9.797174393178826e-15 l -80 -9.797174393178826e-15 l 4.898587196589413e-15 -80 l 80 0 l 4.898587196589413e-15 -80 l -80 -9.797174393178826e-15 l 4.898587196589413e-15 -80 l -80 -9.797174393178826e-15 l -1.4695761589768237e-14 80 l -1.4695761589768237e-14 80 l -80 -9.797174393178826e-15 l 4.898587196589413e-15 -80 l -80 -9.797174393178826e-15 l -1.4695761589768237e-14 80 l -80 -9.797174393178826e-15 l -1.4695761589768237e-14 80 l 80 0 l 80 0 l 4.898587196589413e-15 80 l -80 9.797174393178826e-15 l 4.898587196589413e-15 80 l 4.898587196589413e-15 80 l -80 9.797174393178826e-15 l 4.898587196589413e-15 80 l 80 0 l 80 0 l 4.898587196589413e-15 80 l -80 9.797174393178826e-15 l 4.898587196589413e-15 80 l -80 9.797174393178826e-15 l -1.4695761589768237e-14 -80 l -80 9.797174393178826e-15 l 4.898587196589413e-15 80 l 4.898587196589413e-15 80 l -80 9.797174393178826e-15 l -1.4695761589768237e-14 -80 l -80 9.797174393178826e-15 l -1.4695761589768237e-14 -80 l 80 0 l 4.898587196589413e-15 -80 l -80 -9.797174393178826e-15 l -80 -9.797174393178826e-15 l 4.898587196589413e-15 -80 l 80 0 l 4.898587196589413e-15 -80 l -80 -9.797174393178826e-15 l 4.898587196589413e-15 -80 l -80 -9.797174393178826e-15 l -1.4695761589768237e-14 80 l -1.4695761589768237e-14 80 l -80 -9.797174393178826e-15 l 4.898587196589413e-15 -80 l -80 -9.797174393178826e-15 l 4.898587196589413e-15 -80 l 80 0 l 4.898587196589413e-15 -80 l -80 -9.797174393178826e-15 l -80 -9.797174393178826e-15 l 4.898587196589413e-15 -80 l 80 0 l 4.898587196589413e-15 -80 l 80 0 l 4.898587196589413e-15 80 l 80 0 l 4.898587196589413e-15 -80 l 4.898587196589413e-15 -80 l 80 0 l 4.898587196589413e-15 80 l 80 0 l 4.898587196589413e-15 -80 l 80 0 l 4.898587196589413e-15 -80 l -80 -9.797174393178826e-15 l -80 -9.797174393178826e-15 l 4.898587196589413e-15 -80 l 80 0 l 4.898587196589413e-15 -80 l -80 -9.797174393178826e-15 l 4.898587196589413e-15 -80 l -80 -9.797174393178826e-15 l -1.4695761589768237e-14 80 l -1.4695761589768237e-14 80 l -80 -9.797174393178826e-15 l 4.898587196589413e-15 -80 l -80 -9.797174393178826e-15 l -80 -9.797174393178826e-15 l 4.898587196589413e-15 -80 l -80 -9.797174393178826e-15 l -1.4695761589768237e-14 80 l -1.4695761589768237e-14 80 l -80 -9.797174393178826e-15 l 4.898587196589413e-15 -80 l -80 -9.797174393178826e-15 l 4.898587196589413e-15 -80 l 80 0 l 4.898587196589413e-15 -80 l -80 -9.797174393178826e-15 l -80 -9.797174393178826e-15 l 4.898587196589413e-15 -80 l 80 0 l 4.898587196589413e-15 -80 l 80 0 l 4.898587196589413e-15 80 l 80 0 l 4.898587196589413e-15 -80 l 4.898587196589413e-15 -80 l 80 0 l 4.898587196589413e-15 80 l 80 0 l 4.898587196589413e-15 -80 l 80 0 l 4.898587196589413e-15 -80 l -80 -9.797174393178826e-15 l -80 -9.797174393178826e-15 l 4.898587196589413e-15 -80 l 80 0 l 4.898587196589413e-15 -80 l 80 0 l 4.898587196589413e-15 80 l 80 0 l 4.898587196589413e-15 -80 l 4.898587196589413e-15 -80 l 80 0 l 4.898587196589413e-15 80 l 80 0 l 4.898587196589413e-15 80 l -80 9.797174393178826e-15 l 4.898587196589413e-15 80 l 80 0 l 80 0 l 4.898587196589413e-15 80 l -80 9.797174393178826e-15 l 4.898587196589413e-15 80 l 80 0 l 4.898587196589413e-15 80 l 80 0 l 4.898587196589413e-15 -80 l 4.898587196589413e-15 -80 l 80 0 l 4.898587196589413e-15 80 l 80 0 l 4.898587196589413e-15 -80 l 80 0 l 4.898587196589413e-15 -80 l -80 -9.797174393178826e-15 l -80 -9.797174393178826e-15 l 4.898587196589413e-15 -80 l 80 0 l 4.898587196589413e-15 -80 l 4.898587196589413e-15 -80 l 80 0 l 4.898587196589413e-15 -80 l -80 -9.797174393178826e-15 l -80 -9.797174393178826e-15 l 4.898587196589413e-15 -80 l 80 0 l 4.898587196589413e-15 -80 l 80 0 l 4.898587196589413e-15 80 l 80 0 l 4.898587196589413e-15 -80 l 4.898587196589413e-15 -80 l 80 0 l 4.898587196589413e-15 80 l 80 0 l 4.898587196589413e-15 80 l -80 9.797174393178826e-15 l 4.898587196589413e-15 80 l 80 0 l 80 0 l 4.898587196589413e-15 80 l -80 9.797174393178826e-15 l 4.898587196589413e-15 80 l 80 0 l 4.898587196589413e-15 80 l 80 0 l 4.898587196589413e-15 -80 l 4.898587196589413e-15 -80 l 80 0 l 4.898587196589413e-15 80 l 80 0 l 4.898587196589413e-15 -80 l 80 0 l 4.898587196589413e-15 -80 l -80 -9.797174393178826e-15 l -80 -9.797174393178826e-15 l 4.898587196589413e-15 -80 l 80 0 l 4.898587196589413e-15 -80 l 80 0 l 4.898587196589413e-15 80 l 80 0 l 4.898587196589413e-15 -80 l 4.898587196589413e-15 -80 l 80 0 l 4.898587196589413e-15 80 l 80 0 l 4.898587196589413e-15 -80 l 80 0 l 4.898587196589413e-15 -80 l -80 -9.797174393178826e-15 l -80 -9.797174393178826e-15 l 4.898587196589413e-15 -80 l 80 0 l 4.898587196589413e-15 -80 l -80 -9.797174393178826e-15 l 4.898587196589413e-15 -80 l -80 -9.797174393178826e-15 l -1.4695761589768237e-14 80 l -1.4695761589768237e-14 80 l -80 -9.797174393178826e-15 l 4.898587196589413e-15 -80 l -80 -9.797174393178826e-15 l -80 -9.797174393178826e-15 l 4.898587196589413e-15 -80 l -80 -9.797174393178826e-15 l -1.4695761589768237e-14 80 l -1.4695761589768237e-14 80 l -80 -9.797174393178826e-15 l 4.898587196589413e-15 -80 l -80 -9.797174393178826e-15 l 4.898587196589413e-15 -80 l 80 0 l 4.898587196589413e-15 -80 l -80 -9.797174393178826e-15 l -80 -9.797174393178826e-15 l 4.898587196589413e-15 -80 l 80 0 l 4.898587196589413e-15 -80 l 80 0 l 4.898587196589413e-15 80 l 80 0 l 4.898587196589413e-15 -80 l 4.898587196589413e-15 -80 l 80 0 l 4.898587196589413e-15 80 l 80 0 l 4.898587196589413e-15 -80 l 80 0 l 4.898587196589413e-15 -80 l -80 -9.797174393178826e-15 l -80 -9.797174393178826e-15 l 4.898587196589413e-15 -80 l 80 0 l 4.898587196589413e-15 -80 l 80 0 l 4.898587196589413e-15 80 l 80 0 l 4.898587196589413e-15 -80 l 4.898587196589413e-15 -80 l 80 0 l 4.898587196589413e-15 80 l 80 0 l 4.898587196589413e-15 80 l -80 9.797174393178826e-15 l 4.898587196589413e-15 80 l 80 0 l 80 0 l 4.898587196589413e-15 80 l -80 9.797174393178826e-15 l 4.898587196589413e-15 80 l 80 0 l 4.898587196589413e-15 80 l 80 0 l 4.898587196589413e-15 -80 l 4.898587196589413e-15 -80 l 80 0 l 4.898587196589413e-15 80 l 80 0 l 4.898587196589413e-15 -80 l 80 0 l 4.898587196589413e-15 -80 l -80 -9.797174393178826e-15 l -80 -9.797174393178826e-15 l 4.898587196589413e-15 -80 l 80 0 l 4.898587196589413e-15 -80 l 4.898587196589413e-15 -80 l 80 0 l 4.898587196589413e-15 -80 l -80 -9.797174393178826e-15 l -80 -9.797174393178826e-15 l 4.898587196589413e-15 -80 l 80 0 l 4.898587196589413e-15 -80 l 80 0 l 4.898587196589413e-15 80 l 80 0 l 4.898587196589413e-15 -80 l 4.898587196589413e-15 -80 l 80 0 l 4.898587196589413e-15 80 l 80 0 l 4.898587196589413e-15 80 l -80 9.797174393178826e-15 l 4.898587196589413e-15 80 l 80 0 l 80 0 l 4.898587196589413e-15 80 l -80 9.797174393178826e-15 l 4.898587196589413e-15 80 l 80 0 l 4.898587196589413e-15 80 l 80 0 l 4.898587196589413e-15 -80 l 4.898587196589413e-15 -80 l 80 0 l 4.898587196589413e-15 80 l 80 0 l 4.898587196589413e-15 80 l -80 9.797174393178826e-15 l 4.898587196589413e-15 80 l 80 0 l 80 0 l 4.898587196589413e-15 80 l -80 9.797174393178826e-15 l 4.898587196589413e-15 80 l -80 9.797174393178826e-15 l -1.4695761589768237e-14 -80 l -80 9.797174393178826e-15 l 4.898587196589413e-15 80 l 4.898587196589413e-15 80 l -80 9.797174393178826e-15 l -1.4695761589768237e-14 -80 l -80 9.797174393178826e-15 l 4.898587196589413e-15 80 l -80 9.797174393178826e-15 l 4.898587196589413e-15 80 l 80 0 l 80 0 l 4.898587196589413e-15 80 l -80 9.797174393178826e-15 l 4.898587196589413e-15 80 l 80 0 l 4.898587196589413e-15 80 l 80 0 l 4.898587196589413e-15 -80 l 4.898587196589413e-15 -80 l 80 0 l 4.898587196589413e-15 80 l 80 0 l 80 0 l 4.898587196589413e-15 80 l 80 0 l 4.898587196589413e-15 -80 l 4.898587196589413e-15 -80 l 80 0 l 4.898587196589413e-15 80 l 80 0 l 4.898587196589413e-15 80 l -80 9.797174393178826e-15 l 4.898587196589413e-15 80 l 80 0 l 80 0 l 4.898587196589413e-15 80 l -80 9.797174393178826e-15 l 4.898587196589413e-15 80 l -80 9.797174393178826e-15 l -1.4695761589768237e-14 -80 l -80 9.797174393178826e-15 l 4.898587196589413e-15 80 l 4.898587196589413e-15 80 l -80 9.797174393178826e-15 l -1.4695761589768237e-14 -80 l -80 9.797174393178826e-15 l 4.898587196589413e-15 80 l -80 9.797174393178826e-15 l 4.898587196589413e-15 80 l 80 0 l 80 0 l 4.898587196589413e-15 80 l -80 9.797174393178826e-15 l 4.898587196589413e-15 80 l 80 0 l 4.898587196589413e-15 80 l 80 0 l 4.898587196589413e-15 -80 l 4.898587196589413e-15 -80 l 80 0 l 4.898587196589413e-15 80 l 80 0 l 4.898587196589413e-15 80 l -80 9.797174393178826e-15 l 4.898587196589413e-15 80 l 80 0 l 80 0 l 4.898587196589413e-15 80 l -80 9.797174393178826e-15 l 4.898587196589413e-15 80 l 80 0 l 4.898587196589413e-15 80 l 80 0 l 4.898587196589413e-15 -80 l 4.898587196589413e-15 -80 l 80 0 l 4.898587196589413e-15 80 l 80 0 l 4.898587196589413e-15 -80 l 80 0 l 4.898587196589413e-15 -80 l -80 -9.797174393178826e-15 l -80 -9.797174393178826e-15 l 4.898587196589413e-15 -80 l 80 0 l 4.898587196589413e-15 -80 l 4.898587196589413e-15 -80 l 80 0 l 4.898587196589413e-15 -80 l -80 -9.797174393178826e-15 l -80 -9.797174393178826e-15 l 4.898587196589413e-15 -80 l 80 0 l 4.898587196589413e-15 -80 l 80 0 l 4.898587196589413e-15 80 l 80 0 l 4.898587196589413e-15 -80 l 4.898587196589413e-15 -80 l 80 0 l 4.898587196589413e-15 80 l 80 0 l 4.898587196589413e-15 80 l -80 9.797174393178826e-15 l 4.898587196589413e-15 80 l 80 0 l 80 0 l 4.898587196589413e-15 80 l -80 9.797174393178826e-15 l 4.898587196589413e-15 80 l 80 0 l 4.898587196589413e-15 80 l 80 0 l 4.898587196589413e-15 -80 l 4.898587196589413e-15 -80 l 80 0 l 4.898587196589413e-15 80 l 80 0 l 4.898587196589413e-15 -80 l 80 0 l 4.898587196589413e-15 -80 l -80 -9.797174393178826e-15 l -80 -9.797174393178826e-15 l 4.898587196589413e-15 -80 l 80 0 l 4.898587196589413e-15 -80 l 80 0 l 4.898587196589413e-15 80 l 80 0 l 4.898587196589413e-15 -80 l 4.898587196589413e-15 -80 l 80 0 l 4.898587196589413e-15 80 l 80 0 l 4.898587196589413e-15 -80 l 80 0 l 4.898587196589413e-15 -80 l -80 -9.797174393178826e-15 l -80 -9.797174393178826e-15 l 4.898587196589413e-15 -80 l 80 0 l 4.898587196589413e-15 -80 l -80 -9.797174393178826e-15 l 4.898587196589413e-15 -80 l -80 -9.797174393178826e-15 l -1.4695761589768237e-14 80 l -1.4695761589768237e-14 80 l -80 -9.797174393178826e-15 l 4.898587196589413e-15 -80 l -80 -9.797174393178826e-15 l -80 -9.797174393178826e-15 l 4.898587196589413e-15 -80 l -80 -9.797174393178826e-15 l -1.4695761589768237e-14 80 l -1.4695761589768237e-14 80 l -80 -9.797174393178826e-15 l 4.898587196589413e-15 -80 l -80 -9.797174393178826e-15 l 4.898587196589413e-15 -80 l 80 0 l 4.898587196589413e-15 -80 l -80 -9.797174393178826e-15 l -80 -9.797174393178826e-15 l 4.898587196589413e-15 -80 l 80 0 l 4.898587196589413e-15 -80 l 80 0 l 4.898587196589413e-15 80 l 80 0 l 4.898587196589413e-15 -80 l 4.898587196589413e-15 -80 l 80 0 l 4.898587196589413e-15 80 l 80 0 l 4.898587196589413e-15 -80 l 80 0 l 4.898587196589413e-15 -80 l -80 -9.797174393178826e-15 l -80 -9.797174393178826e-15 l 4.898587196589413e-15 -80 l 80 0 l 4.898587196589413e-15 -80 l 4.898587196589413e-15 -80 l 80 0 l 4.898587196589413e-15 -80 l -80 -9.797174393178826e-15 l -80 -9.797174393178826e-15 l 4.898587196589413e-15 -80 l 80 0 l 4.898587196589413e-15 -80 l 80 0 l 4.898587196589413e-15 80 l 80 0 l 4.898587196589413e-15 -80 l 4.898587196589413e-15 -80 l 80 0 l 4.898587196589413e-15 80 l 80 0 l 4.898587196589413e-15 -80 l 80 0 l 4.898587196589413e-15 -80 l -80 -9.797174393178826e-15 l -80 -9.797174393178826e-15 l 4.898587196589413e-15 -80 l 80 0 l 4.898587196589413e-15 -80 l -80 -9.797174393178826e-15 l 4.898587196589413e-15 -80 l -80 -9.797174393178826e-15 l -1.4695761589768237e-14 80 l -1.4695761589768237e-14 80 l -80 -9.797174393178826e-15 l 4.898587196589413e-15 -80 l -80 -9.797174393178826e-15 l -80 -9.797174393178826e-15 l 4.898587196589413e-15 -80 l -80 -9.797174393178826e-15 l -1.4695761589768237e-14 80 l -1.4695761589768237e-14 80 l -80 -9.797174393178826e-15 l 4.898587196589413e-15 -80 l -80 -9.797174393178826e-15 l 4.898587196589413e-15 -80 l 80 0 l 4.898587196589413e-15 -80 l -80 -9.797174393178826e-15 l -80 -9.797174393178826e-15 l 4.898587196589413e-15 -80 l 80 0 l 4.898587196589413e-15 -80 l 80 0 l 4.898587196589413e-15 80 l 80 0 l 4.898587196589413e-15 -80 l 4.898587196589413e-15 -80 l 80 0 l 4.898587196589413e-15 80 l 80 0 l 4.898587196589413e-15 -80 l 80 0 l 4.898587196589413e-15 -80 l -80 -9.797174393178826e-15 l -80 -9.797174393178826e-15 l 4.898587196589413e-15 -80 l 80 0 l 4.898587196589413e-15 -80 l 80 0 l 4.898587196589413e-15 80 l 80 0 l 4.898587196589413e-15 -80 l 4.898587196589413e-15 -80 l 80 0 l 4.898587196589413e-15 80 l 80 0 l 4.898587196589413e-15 80 l -80 9.797174393178826e-15 l 4.898587196589413e-15 80 l 80 0 l 80 0 l 4.898587196589413e-15 80 l -80 9.797174393178826e-15 l 4.898587196589413e-15 80 l 80 0 l 4.898587196589413e-15 80 l 80 0 l 4.898587196589413e-15 -80 l 4.898587196589413e-15 -80 l 80 0 l 4.898587196589413e-15 80 l 80 0 l 4.898587196589413e-15 -80 l 80 0 l 4.898587196589413e-15 -80 l -80 -9.797174393178826e-15 l -80 -9.797174393178826e-15 l 4.898587196589413e-15 -80 l 80 0 l 4.898587196589413e-15 -80 l 4.898587196589413e-15 -80 l 80 0 l 4.898587196589413e-15 -80 l -80 -9.797174393178826e-15 l -80 -9.797174393178826e-15 l 4.898587196589413e-15 -80 l 80 0 l 4.898587196589413e-15 -80 l 80 0 l 4.898587196589413e-15 80 l 80 0 l 4.898587196589413e-15 -80 l 4.898587196589413e-15 -80 l 80 0 l 4.898587196589413e-15 80 l 80 0 l 4.898587196589413e-15 80 l -80 9.797174393178826e-15 l 4.898587196589413e-15 80 l 80 0 l 80 0 l 4.898587196589413e-15 80 l -80 9.797174393178826e-15 l 4.898587196589413e-15 80 l 80 0 l 4.898587196589413e-15 80 l 80 0 l 4.898587196589413e-15 -80 l 4.898587196589413e-15 -80 l 80 0 l 4.898587196589413e-15 80 l 80 0 l 4.898587196589413e-15 80 l -80 9.797174393178826e-15 l 4.898587196589413e-15 80 l 80 0 l 80 0 l 4.898587196589413e-15 80 l -80 9.797174393178826e-15 l 4.898587196589413e-15 80 l -80 9.797174393178826e-15 l -1.4695761589768237e-14 -80 l -80 9.797174393178826e-15 l 4.898587196589413e-15 80 l 4.898587196589413e-15 80 l -80 9.797174393178826e-15 l -1.4695761589768237e-14 -80 l -80 9.797174393178826e-15 l 4.898587196589413e-15 80 l -80 9.797174393178826e-15 l 4.898587196589413e-15 80 l 80 0 l 80 0 l 4.898587196589413e-15 80 l -80 9.797174393178826e-15 l 4.898587196589413e-15 80 l 80 0 l 4.898587196589413e-15 80 l 80 0 l 4.898587196589413e-15 -80 l 4.898587196589413e-15 -80 l 80 0 l 4.898587196589413e-15 80 l 80 0 l 80 0 l 4.898587196589413e-15 80 l 80 0 l 4.898587196589413e-15 -80 l 4.898587196589413e-15 -80 l 80 0 l 4.898587196589413e-15 80 l 80 0 l 4.898587196589413e-15 80 l -80 9.797174393178826e-15 l 4.898587196589413e-15 80 l 80 0 l 80 0 l 4.898587196589413e-15 80 l -80 9.797174393178826e-15 l 4.898587196589413e-15 80 l -80 9.797174393178826e-15 l -1.4695761589768237e-14 -80 l -80 9.797174393178826e-15 l 4.898587196589413e-15 80 l 4.898587196589413e-15 80 l -80 9.797174393178826e-15 l -1.4695761589768237e-14 -80 l -80 9.797174393178826e-15 l 4.898587196589413e-15 80 l -80 9.797174393178826e-15 l 4.898587196589413e-15 80 l 80 0 l 80 0 l 4.898587196589413e-15 80 l -80 9.797174393178826e-15 l 4.898587196589413e-15 80 l 80 0 l 4.898587196589413e-15 80 l 80 0 l 4.898587196589413e-15 -80 l 4.898587196589413e-15 -80 l 80 0 l 4.898587196589413e-15 80 l 80 0 l 4.898587196589413e-15 80 l -80 9.797174393178826e-15 l 4.898587196589413e-15 80 l 80 0 l 80 0 l 4.898587196589413e-15 80 l -80 9.797174393178826e-15 l 4.898587196589413e-15 80 l 80 0 l 4.898587196589413e-15 80 l 80 0 l 4.898587196589413e-15 -80 l 4.898587196589413e-15 -80 l 80 0 l 4.898587196589413e-15 80 l 80 0 l 4.898587196589413e-15 -80 l 80 0 l 4.898587196589413e-15 -80 l -80 -9.797174393178826e-15 l -80 -9.797174393178826e-15 l 4.898587196589413e-15 -80 l 80 0 l 4.898587196589413e-15 -80 l 4.898587196589413e-15 -80 l 80 0 l 4.898587196589413e-15 -80 l -80 -9.797174393178826e-15 l -80 -9.797174393178826e-15 l 4.898587196589413e-15 -80 l 80 0 l 4.898587196589413e-15 -80 l 80 0 l 4.898587196589413e-15 80 l 80 0 l 4.898587196589413e-15 -80 l 4.898587196589413e-15 -80 l 80 0 l 4.898587196589413e-15 80 l 80 0 l 4.898587196589413e-15 80 l -80 9.797174393178826e-15 l 4.898587196589413e-15 80 l 80 0 l 80 0 l 4.898587196589413e-15 80 l -80 9.797174393178826e-15 l 4.898587196589413e-15 80 l 80 0 l 4.898587196589413e-15 80 l 80 0 l 4.898587196589413e-15 -80 l 4.898587196589413e-15 -80 l 80 0 l 4.898587196589413e-15 80 l 80 0 l 4.898587196589413e-15 80 l -80 9.797174393178826e-15 l 4.898587196589413e-15 80 l 80 0 l 80 0 l 4.898587196589413e-15 80 l -80 9.797174393178826e-15 l 4.898587196589413e-15 80 l -80 9.797174393178826e-15 l -1.4695761589768237e-14 -80 l -80 9.797174393178826e-15 l 4.898587196589413e-15 80 l 4.898587196589413e-15 80 l -80 9.797174393178826e-15 l -1.4695761589768237e-14 -80 l -80 9.797174393178826e-15 l 4.898587196589413e-15 80 l -80 9.797174393178826e-15 l 4.898587196589413e-15 80 l 80 0 l 80 0 l 4.898587196589413e-15 80 l -80 9.797174393178826e-15 l 4.898587196589413e-15 80 l 80 0 l 4.898587196589413e-15 80 l 80 0 l 4.898587196589413e-15 -80 l 4.898587196589413e-15 -80 l 80 0 l 4.898587196589413e-15 80 l 80 0 l 80 0 l 4.898587196589413e-15 80 l 80 0 l 4.898587196589413e-15 -80 l 4.898587196589413e-15 -80 l 80 0 l 4.898587196589413e-15 80 l 80 0 l 4.898587196589413e-15 80 l -80 9.797174393178826e-15 l 4.898587196589413e-15 80 l 80 0 l 80 0 l 4.898587196589413e-15 80 l -80 9.797174393178826e-15 l 4.898587196589413e-15 80 l -80 9.797174393178826e-15 l -1.4695761589768237e-14 -80 l -80 9.797174393178826e-15 l 4.898587196589413e-15 80 l 4.898587196589413e-15 80 l -80 9.797174393178826e-15 l -1.4695761589768237e-14 -80 l -80 9.797174393178826e-15 l 4.898587196589413e-15 80 l -80 9.797174393178826e-15 l 4.898587196589413e-15 80 l 80 0 l 80 0 l 4.898587196589413e-15 80 l -80 9.797174393178826e-15 l 4.898587196589413e-15 80 l -80 9.797174393178826e-15 l -1.4695761589768237e-14 -80 l -80 9.797174393178826e-15 l 4.898587196589413e-15 80 l 4.898587196589413e-15 80 l -80 9.797174393178826e-15 l -1.4695761589768237e-14 -80 l -80 9.797174393178826e-15 l -1.4695761589768237e-14 -80 l 80 0 l 4.898587196589413e-15 -80 l -80 -9.797174393178826e-15 l -80 -9.797174393178826e-15 l 4.898587196589413e-15 -80 l 80 0 l 4.898587196589413e-15 -80 l -80 -9.797174393178826e-15 l 4.898587196589413e-15 -80 l -80 -9.797174393178826e-15 l -1.4695761589768237e-14 80 l -1.4695761589768237e-14 80 l -80 -9.797174393178826e-15 l 4.898587196589413e-15 -80 l -80 -9.797174393178826e-15 l -1.4695761589768237e-14 80 l -80 -9.797174393178826e-15 l -1.4695761589768237e-14 80 l 80 0 l 80 0 l 4.898587196589413e-15 80 l -80 9.797174393178826e-15 l 4.898587196589413e-15 80 l 4.898587196589413e-15 80 l -80 9.797174393178826e-15 l 4.898587196589413e-15 80 l 80 0 l 80 0 l 4.898587196589413e-15 80 l -80 9.797174393178826e-15 l 4.898587196589413e-15 80 l -80 9.797174393178826e-15 l -1.4695761589768237e-14 -80 l -80 9.797174393178826e-15 l 4.898587196589413e-15 80 l 4.898587196589413e-15 80 l -80 9.797174393178826e-15 l -1.4695761589768237e-14 -80 l -80 9.797174393178826e-15 l -1.4695761589768237e-14 -80 l 80 0 l 4.898587196589413e-15 -80 l -80 -9.797174393178826e-15 l -80 -9.797174393178826e-15 l 4.898587196589413e-15 -80 l 80 0 l 4.898587196589413e-15 -80 l -80 -9.797174393178826e-15 l 4.898587196589413e-15 -80 l -80 -9.797174393178826e-15 l -1.4695761589768237e-14 80 l -1.4695761589768237e-14 80 l -80 -9.797174393178826e-15 l 4.898587196589413e-15 -80 l -80 -9.797174393178826e-15 l -1.4695761589768237e-14 80 l -80 -9.797174393178826e-15 l -1.4695761589768237e-14 80 l 80 0 l 80 0 l 4.898587196589413e-15 80 l -80 9.797174393178826e-15 l 4.898587196589413e-15 80 l -80 9.797174393178826e-15 l -1.4695761589768237e-14 -80 l -80 9.797174393178826e-15 l 4.898587196589413e-15 80 l 4.898587196589413e-15 80 l -80 9.797174393178826e-15 l -1.4695761589768237e-14 -80 l -80 9.797174393178826e-15 l 4.898587196589413e-15 80 l -80 9.797174393178826e-15 l 4.898587196589413e-15 80 l 80 0 l 80 0 l 4.898587196589413e-15 80 l -80 9.797174393178826e-15 l 4.898587196589413e-15 80 l 80 0 l 4.898587196589413e-15 80 l 80 0 l 4.898587196589413e-15 -80 l 4.898587196589413e-15 -80 l 80 0 l 4.898587196589413e-15 80 l 80 0 l 80 0 l 4.898587196589413e-15 80 l 80 0 l 4.898587196589413e-15 -80 l 4.898587196589413e-15 -80 l 80 0 l 4.898587196589413e-15 80 l 80 0 l 4.898587196589413e-15 80 l -80 9.797174393178826e-15 l 4.898587196589413e-15 80 l 80 0 l 80 0 l 4.898587196589413e-15 80 l -80 9.797174393178826e-15 l 4.898587196589413e-15 80 l -80 9.797174393178826e-15 l -1.4695761589768237e-14 -80 l -80 9.797174393178826e-15 l 4.898587196589413e-15 80 l 4.898587196589413e-15 80 l -80 9.797174393178826e-15 l -1.4695761589768237e-14 -80 l -80 9.797174393178826e-15 l 4.898587196589413e-15 80 l -80 9.797174393178826e-15 l 4.898587196589413e-15 80 l 80 0 l 80 0 l 4.898587196589413e-15 80 l -80 9.797174393178826e-15 l 4.898587196589413e-15 80 l 80 0 l 4.898587196589413e-15 80 l 80 0 l 4.898587196589413e-15 -80 l 4.898587196589413e-15 -80 l 80 0 l 4.898587196589413e-15 80 l 80 0 l 4.898587196589413e-15 80 l -80 9.797174393178826e-15 l 4.898587196589413e-15 80 l 80 0 l 80 0 l 4.898587196589413e-15 80 l -80 9.797174393178826e-15 l 4.898587196589413e-15 80 l 80 0 l 4.898587196589413e-15 80 l 80 0 l 4.898587196589413e-15 -80 l 4.898587196589413e-15 -80 l 80 0 l 4.898587196589413e-15 80 l 80 0 l 4.898587196589413e-15 -80 l 80 0 l 4.898587196589413e-15 -80 l -80 -9.797174393178826e-15 l -80 -9.797174393178826e-15 l 4.898587196589413e-15 -80 l 80 0 l 4.898587196589413e-15 -80 l 4.898587196589413e-15 -80 l 80 0 l 4.898587196589413e-15 -80 l -80 -9.797174393178826e-15 l -80 -9.797174393178826e-15 l 4.898587196589413e-15 -80 l 80 0 l 4.898587196589413e-15 -80 l 80 0 l 4.898587196589413e-15 80 l 80 0 l 4.898587196589413e-15 -80 l 4.898587196589413e-15 -80 l 80 0 l 4.898587196589413e-15 80 l 80 0 l 4.898587196589413e-15 80 l -80 9.797174393178826e-15 l 4.898587196589413e-15 80 l 80 0 l 80 0 l 4.898587196589413e-15 80 l -80 9.797174393178826e-15 l 4.898587196589413e-15 80 l 80 0 l 4.898587196589413e-15 80 l 80 0 l 4.898587196589413e-15 -80 l 4.898587196589413e-15 -80 l 80 0 l 4.898587196589413e-15 80 l 80 0 l 80 0 l 4.898587196589413e-15 80 l 80 0 l 4.898587196589413e-15 -80 l 4.898587196589413e-15 -80 l 80 0 l 4.898587196589413e-15 80 l 80 0 l 4.898587196589413e-15 80 l -80 9.797174393178826e-15 l 4.898587196589413e-15 80 l 80 0 l 80 0 l 4.898587196589413e-15 80 l -80 9.797174393178826e-15 l 4.898587196589413e-15 80 l 80 0 l 4.898587196589413e-15 80 l 80 0 l 4.898587196589413e-15 -80 l 4.898587196589413e-15 -80 l 80 0 l 4.898587196589413e-15 80 l 80 0 l 4.898587196589413e-15 -80 l 80 0 l 4.898587196589413e-15 -80 l -80 -9.797174393178826e-15 l -80 -9.797174393178826e-15 l 4.898587196589413e-15 -80 l 80 0 l 4.898587196589413e-15 -80 l 4.898587196589413e-15 -80 l 80 0 l 4.898587196589413e-15 -80 l -80 -9.797174393178826e-15 l -80 -9.797174393178826e-15 l 4.898587196589413e-15 -80 l 80 0 l 4.898587196589413e-15 -80 l 80 0 l 4.898587196589413e-15 80 l 80 0 l 4.898587196589413e-15 -80 l 4.898587196589413e-15 -80 l 80 0 l 4.898587196589413e-15 80 l 80 0 l 4.898587196589413e-15 80 l -80 9.797174393178826e-15 l 4.898587196589413e-15 80 l 80 0 l 80 0 l 4.898587196589413e-15 80 l -80 9.797174393178826e-15 l 4.898587196589413e-15 80 l 80 0 l 4.898587196589413e-15 80 l 80 0 l 4.898587196589413e-15 -80 l 4.898587196589413e-15 -80 l 80 0 l 4.898587196589413e-15 80 l 80 0 l 4.898587196589413e-15 80 l -80 9.797174393178826e-15 l 4.898587196589413e-15 80 l 80 0 l 80 0 l 4.898587196589413e-15 80 l -80 9.797174393178826e-15 l 4.898587196589413e-15 80 l -80 9.797174393178826e-15 l -1.4695761589768237e-14 -80 l -80 9.797174393178826e-15 l 4.898587196589413e-15 80 l 4.898587196589413e-15 80 l -80 9.797174393178826e-15 l -1.4695761589768237e-14 -80 l -80 9.797174393178826e-15 l 4.898587196589413e-15 80 l -80 9.797174393178826e-15 l 4.898587196589413e-15 80 l 80 0 l 80 0 l 4.898587196589413e-15 80 l -80 9.797174393178826e-15 l 4.898587196589413e-15 80 l 80 0 l 4.898587196589413e-15 80 l 80 0 l 4.898587196589413e-15 -80 l 4.898587196589413e-15 -80 l 80 0 l 4.898587196589413e-15 80 l 80 0 l 80 0 l 4.898587196589413e-15 80 l 80 0 l 4.898587196589413e-15 -80 l 4.898587196589413e-15 -80 l 80 0 l 4.898587196589413e-15 80 l 80 0 l 4.898587196589413e-15 80 l -80 9.797174393178826e-15 l 4.898587196589413e-15 80 l 80 0 l 80 0 l 4.898587196589413e-15 80 l -80 9.797174393178826e-15 l 4.898587196589413e-15 80 l -80 9.797174393178826e-15 l -1.4695761589768237e-14 -80 l -80 9.797174393178826e-15 l 4.898587196589413e-15 80 l 4.898587196589413e-15 80 l -80 9.797174393178826e-15 l -1.4695761589768237e-14 -80 l -80 9.797174393178826e-15 l 4.898587196589413e-15 80 l -80 9.797174393178826e-15 l 4.898587196589413e-15 80 l 80 0 l 80 0 l 4.898587196589413e-15 80 l -80 9.797174393178826e-15 l 4.898587196589413e-15 80 l -80 9.797174393178826e-15 l -1.4695761589768237e-14 -80 l -80 9.797174393178826e-15 l 4.898587196589413e-15 80 l 4.898587196589413e-15 80 l -80 9.797174393178826e-15 l -1.4695761589768237e-14 -80 l -80 9.797174393178826e-15 l -1.4695761589768237e-14 -80 l 80 0 l 4.898587196589413e-15 -80 l -80 -9.797174393178826e-15 l -80 -9.797174393178826e-15 l 4.898587196589413e-15 -80 l 80 0 l 4.898587196589413e-15 -80 l -80 -9.797174393178826e-15 l 4.898587196589413e-15 -80 l -80 -9.797174393178826e-15 l -1.4695761589768237e-14 80 l -1.4695761589768237e-14 80 l -80 -9.797174393178826e-15 l 4.898587196589413e-15 -80 l -80 -9.797174393178826e-15 l -1.4695761589768237e-14 80 l -80 -9.797174393178826e-15 l -1.4695761589768237e-14 80 l 80 0 l 80 0 l 4.898587196589413e-15 80 l -80 9.797174393178826e-15 l 4.898587196589413e-15 80 l 4.898587196589413e-15 80 l -80 9.797174393178826e-15 l 4.898587196589413e-15 80 l 80 0 l 80 0 l 4.898587196589413e-15 80 l -80 9.797174393178826e-15 l 4.898587196589413e-15 80 l -80 9.797174393178826e-15 l -1.4695761589768237e-14 -80 l -80 9.797174393178826e-15 l 4.898587196589413e-15 80 l 4.898587196589413e-15 80 l -80 9.797174393178826e-15 l -1.4695761589768237e-14 -80 l -80 9.797174393178826e-15 l -1.4695761589768237e-14 -80 l 80 0 l 4.898587196589413e-15 -80 l -80 -9.797174393178826e-15 l -80 -9.797174393178826e-15 l 4.898587196589413e-15 -80 l 80 0 l 4.898587196589413e-15 -80 l -80 -9.797174393178826e-15 l 4.898587196589413e-15 -80 l -80 -9.797174393178826e-15 l -1.4695761589768237e-14 80 l -1.4695761589768237e-14 80 l -80 -9.797174393178826e-15 l 4.898587196589413e-15 -80 l -80 -9.797174393178826e-15 l -1.4695761589768237e-14 80 l -80 -9.797174393178826e-15 l -1.4695761589768237e-14 80 l 80 0 l 80 0 l 4.898587196589413e-15 80 l -80 9.797174393178826e-15 l 4.898587196589413e-15 80 l -80 9.797174393178826e-15 l -1.4695761589768237e-14 -80 l -80 9.797174393178826e-15 l 4.898587196589413e-15 80 l 4.898587196589413e-15 80 l -80 9.797174393178826e-15 l -1.4695761589768237e-14 -80 l -80 9.797174393178826e-15 l 4.898587196589413e-15 80 l -80 9.797174393178826e-15 l 4.898587196589413e-15 80 l 80 0 l 80 0 l 4.898587196589413e-15 80 l -80 9.797174393178826e-15 l 4.898587196589413e-15 80 l 80 0 l 4.898587196589413e-15 80 l 80 0 l 4.898587196589413e-15 -80 l 4.898587196589413e-15 -80 l 80 0 l 4.898587196589413e-15 80 l 80 0 l 80 0 l 4.898587196589413e-15 80 l 80 0 l 4.898587196589413e-15 -80 l 4.898587196589413e-15 -80 l 80 0 l 4.898587196589413e-15 80 l 80 0 l 4.898587196589413e-15 80 l -80 9.797174393178826e-15 l 4.898587196589413e-15 80 l 80 0 l 80 0 l 4.898587196589413e-15 80 l -80 9.797174393178826e-15 l 4.898587196589413e-15 80 l -80 9.797174393178826e-15 l -1.4695761589768237e-14 -80 l -80 9.797174393178826e-15 l 4.898587196589413e-15 80 l 4.898587196589413e-15 80 l -80 9.797174393178826e-15 l -1.4695761589768237e-14 -80 l -80 9.797174393178826e-15 l 4.898587196589413e-15 80 l -80 9.797174393178826e-15 l 4.898587196589413e-15 80 l 80 0 l 80 0 l 4.898587196589413e-15 80 l -80 9.797174393178826e-15 l 4.898587196589413e-15 80 l -80 9.797174393178826e-15 l -1.4695761589768237e-14 -80 l -80 9.797174393178826e-15 l 4.898587196589413e-15 80 l 4.898587196589413e-15 80 l -80 9.797174393178826e-15 l -1.4695761589768237e-14 -80 l -80 9.797174393178826e-15 l -1.4695761589768237e-14 -80 l 80 0 l 4.898587196589413e-15 -80 l -80 -9.797174393178826e-15 l -80 -9.797174393178826e-15 l 4.898587196589413e-15 -80 l 80 0 l 4.898587196589413e-15 -80 l -80 -9.797174393178826e-15 l 4.898587196589413e-15 -80 l -80 -9.797174393178826e-15 l -1.4695761589768237e-14 80 l -1.4695761589768237e-14 80 l -80 -9.797174393178826e-15 l 4.898587196589413e-15 -80 l -80 -9.797174393178826e-15 l -1.4695761589768237e-14 80 l -80 -9.797174393178826e-15 l -1.4695761589768237e-14 80 l 80 0 l 80 0 l 4.898587196589413e-15 80 l -80 9.797174393178826e-15 l 4.898587196589413e-15 80 l 4.898587196589413e-15 80 l -80 9.797174393178826e-15 l 4.898587196589413e-15 80 l 80 0 l 80 0 l 4.898587196589413e-15 80 l -80 9.797174393178826e-15 l 4.898587196589413e-15 80 l -80 9.797174393178826e-15 l -1.4695761589768237e-14 -80 l -80 9.797174393178826e-15 l 4.898587196589413e-15 80 l 4.898587196589413e-15 80 l -80 9.797174393178826e-15 l -1.4695761589768237e-14 -80 l -80 9.797174393178826e-15 l -1.4695761589768237e-14 -80 l 80 0 l 4.898587196589413e-15 -80 l -80 -9.797174393178826e-15 l -80 -9.797174393178826e-15 l 4.898587196589413e-15 -80 l 80 0 l 4.898587196589413e-15 -80 l -80 -9.797174393178826e-15 l 4.898587196589413e-15 -80 l -80 -9.797174393178826e-15 l -1.4695761589768237e-14 80 l -1.4695761589768237e-14 80 l -80 -9.797174393178826e-15 l 4.898587196589413e-15 -80 l -80 -9.797174393178826e-15 l 4.898587196589413e-15 -80 l 80 0 l 4.898587196589413e-15 -80 l -80 -9.797174393178826e-15 l -80 -9.797174393178826e-15 l 4.898587196589413e-15 -80 l 80 0 l 4.898587196589413e-15 -80 l 80 0 l 4.898587196589413e-15 80 l 80 0 l 4.898587196589413e-15 -80 l 4.898587196589413e-15 -80 l 80 0 l 4.898587196589413e-15 80 l 80 0 l 4.898587196589413e-15 -80 l 80 0 l 4.898587196589413e-15 -80 l -80 -9.797174393178826e-15 l -80 -9.797174393178826e-15 l 4.898587196589413e-15 -80 l 80 0 l 4.898587196589413e-15 -80 l -80 -9.797174393178826e-15 l 4.898587196589413e-15 -80 l -80 -9.797174393178826e-15 l -1.4695761589768237e-14 80 l -1.4695761589768237e-14 80 l -80 -9.797174393178826e-15 l 4.898587196589413e-15 -80 l -80 -9.797174393178826e-15 l -80 -9.797174393178826e-15 l 4.898587196589413e-15 -80 l -80 -9.797174393178826e-15 l -1.4695761589768237e-14 80 l -1.4695761589768237e-14 80 l -80 -9.797174393178826e-15 l 4.898587196589413e-15 -80 l -80 -9.797174393178826e-15 l 4.898587196589413e-15 -80 l 80 0 l 4.898587196589413e-15 -80 l -80 -9.797174393178826e-15 l -80 -9.797174393178826e-15 l 4.898587196589413e-15 -80 l 80 0 l 4.898587196589413e-15 -80 l 80 0 l 4.898587196589413e-15 80 l 80 0 l 4.898587196589413e-15 -80 l 4.898587196589413e-15 -80 l 80 0 l 4.898587196589413e-15 80 l 80 0 l 4.898587196589413e-15 -80 l 80 0 l 4.898587196589413e-15 -80 l -80 -9.797174393178826e-15 l -80 -9.797174393178826e-15 l 4.898587196589413e-15 -80 l 80 0 l 4.898587196589413e-15 -80 l -80 -9.797174393178826e-15 l 4.898587196589413e-15 -80 l -80 -9.797174393178826e-15 l -1.4695761589768237e-14 80 l -1.4695761589768237e-14 80 l -80 -9.797174393178826e-15 l 4.898587196589413e-15 -80 l -80 -9.797174393178826e-15 l 4.898587196589413e-15 -80 l 80 0 l 4.898587196589413e-15 -80 l -80 -9.797174393178826e-15 l -80 -9.797174393178826e-15 l 4.898587196589413e-15 -80 l 80 0 l 4.898587196589413e-15 -80 l -80 -9.797174393178826e-15 l 4.898587196589413e-15 -80 l -80 -9.797174393178826e-15 l -1.4695761589768237e-14 80 l -1.4695761589768237e-14 80 l -80 -9.797174393178826e-15 l 4.898587196589413e-15 -80 l -80 -9.797174393178826e-15 l -1.4695761589768237e-14 80 l -80 -9.797174393178826e-15 l -1.4695761589768237e-14 80 l 80 0 l 80 0 l 4.898587196589413e-15 80 l -80 9.797174393178826e-15 l 4.898587196589413e-15 80 l 4.898587196589413e-15 80 l -80 9.797174393178826e-15 l 4.898587196589413e-15 80 l 80 0 l 80 0 l 4.898587196589413e-15 80 l -80 9.797174393178826e-15 l 4.898587196589413e-15 80 l -80 9.797174393178826e-15 l -1.4695761589768237e-14 -80 l -80 9.797174393178826e-15 l 4.898587196589413e-15 80 l 4.898587196589413e-15 80 l -80 9.797174393178826e-15 l -1.4695761589768237e-14 -80 l -80 9.797174393178826e-15 l -1.4695761589768237e-14 -80 l 80 0 l 4.898587196589413e-15 -80 l -80 -9.797174393178826e-15 l -80 -9.797174393178826e-15 l 4.898587196589413e-15 -80 l 80 0 l 4.898587196589413e-15 -80 l -80 -9.797174393178826e-15 l 4.898587196589413e-15 -80 l -80 -9.797174393178826e-15 l -1.4695761589768237e-14 80 l -1.4695761589768237e-14 80 l -80 -9.797174393178826e-15 l 4.898587196589413e-15 -80 l -80 -9.797174393178826e-15 l -1.4695761589768237e-14 80 l -80 -9.797174393178826e-15 l -1.4695761589768237e-14 80 l 80 0 l 80 0 l 4.898587196589413e-15 80 l -80 9.797174393178826e-15 l 4.898587196589413e-15 80 l -80 9.797174393178826e-15 l -1.4695761589768237e-14 -80 l -80 9.797174393178826e-15 l 4.898587196589413e-15 80 l 4.898587196589413e-15 80 l -80 9.797174393178826e-15 l -1.4695761589768237e-14 -80 l -80 9.797174393178826e-15 l 4.898587196589413e-15 80 l -80 9.797174393178826e-15 l 4.898587196589413e-15 80 l 80 0 l 80 0 l 4.898587196589413e-15 80 l -80 9.797174393178826e-15 l 4.898587196589413e-15 80 l 80 0 l 4.898587196589413e-15 80 l 80 0 l 4.898587196589413e-15 -80 l 4.898587196589413e-15 -80 l 80 0 l 4.898587196589413e-15 80 l 80 0 l 80 0 l 4.898587196589413e-15 80 l 80 0 l 4.898587196589413e-15 -80 l 4.898587196589413e-15 -80 l 80 0 l 4.898587196589413e-15 80 l 80 0 l 4.898587196589413e-15 80 l -80 9.797174393178826e-15 l 4.898587196589413e-15 80 l 80 0 l 80 0 l 4.898587196589413e-15 80 l -80 9.797174393178826e-15 l 4.898587196589413e-15 80 l -80 9.797174393178826e-15 l -1.4695761589768237e-14 -80 l -80 9.797174393178826e-15 l 4.898587196589413e-15 80 l 4.898587196589413e-15 80 l -80 9.797174393178826e-15 l -1.4695761589768237e-14 -80 l -80 9.797174393178826e-15 l 4.898587196589413e-15 80 l -80 9.797174393178826e-15 l 4.898587196589413e-15 80 l 80 0 l 80 0 l 4.898587196589413e-15 80 l -80 9.797174393178826e-15 l 4.898587196589413e-15 80 l 4.898587196589413e-15 80 l -80 9.797174393178826e-15 l 4.898587196589413e-15 80 l 80 0 l 80 0 l 4.898587196589413e-15 80 l -80 9.797174393178826e-15 l 4.898587196589413e-15 80 l -80 9.797174393178826e-15 l -1.4695761589768237e-14 -80 l -80 9.797174393178826e-15 l 4.898587196589413e-15 80 l 4.898587196589413e-15 80 l -80 9.797174393178826e-15 l -1.4695761589768237e-14 -80 l -80 9.797174393178826e-15 l 4.898587196589413e-15 80 l -80 9.797174393178826e-15 l 4.898587196589413e-15 80 l 80 0 l 80 0 l 4.898587196589413e-15 80 l -80 9.797174393178826e-15 l 4.898587196589413e-15 80 l 80 0 l 4.898587196589413e-15 80 l 80 0 l 4.898587196589413e-15 -80 l 4.898587196589413e-15 -80 l 80 0 l 4.898587196589413e-15 80 l 80 0 l 80 0 l 4.898587196589413e-15 80 l 80 0 l 4.898587196589413e-15 -80 l 4.898587196589413e-15 -80 l 80 0 l 4.898587196589413e-15 80 l 80 0 l 4.898587196589413e-15 80 l -80 9.797174393178826e-15 l 4.898587196589413e-15 80 l 80 0 l 80 0 l 4.898587196589413e-15 80 l -80 9.797174393178826e-15 l 4.898587196589413e-15 80 l -80 9.797174393178826e-15 l -1.4695761589768237e-14 -80 l -80 9.797174393178826e-15 l 4.898587196589413e-15 80 l 4.898587196589413e-15 80 l -80 9.797174393178826e-15 l -1.4695761589768237e-14 -80 l -80 9.797174393178826e-15 l 4.898587196589413e-15 80 l -80 9.797174393178826e-15 l 4.898587196589413e-15 80 l 80 0 l 80 0 l 4.898587196589413e-15 80 l -80 9.797174393178826e-15 l 4.898587196589413e-15 80 l -80 9.797174393178826e-15 l -1.4695761589768237e-14 -80 l -80 9.797174393178826e-15 l 4.898587196589413e-15 80 l 4.898587196589413e-15 80 l -80 9.797174393178826e-15 l -1.4695761589768237e-14 -80 l -80 9.797174393178826e-15 l -1.4695761589768237e-14 -80 l 80 0 l 4.898587196589413e-15 -80 l -80 -9.797174393178826e-15 l -80 -9.797174393178826e-15 l 4.898587196589413e-15 -80 l 80 0 l 4.898587196589413e-15 -80 l -80 -9.797174393178826e-15 l 4.898587196589413e-15 -80 l -80 -9.797174393178826e-15 l -1.4695761589768237e-14 80 l -1.4695761589768237e-14 80 l -80 -9.797174393178826e-15 l 4.898587196589413e-15 -80 l -80 -9.797174393178826e-15 l -1.4695761589768237e-14 80 l -80 -9.797174393178826e-15 l -1.4695761589768237e-14 80 l 80 0 l 80 0 l 4.898587196589413e-15 80 l -80 9.797174393178826e-15 l 4.898587196589413e-15 80 l 4.898587196589413e-15 80 l -80 9.797174393178826e-15 l 4.898587196589413e-15 80 l 80 0 l 80 0 l 4.898587196589413e-15 80 l -80 9.797174393178826e-15 l 4.898587196589413e-15 80 l -80 9.797174393178826e-15 l -1.4695761589768237e-14 -80 l -80 9.797174393178826e-15 l 4.898587196589413e-15 80 l 4.898587196589413e-15 80 l -80 9.797174393178826e-15 l -1.4695761589768237e-14 -80 l -80 9.797174393178826e-15 l -1.4695761589768237e-14 -80 l 80 0 l 4.898587196589413e-15 -80 l -80 -9.797174393178826e-15 l -80 -9.797174393178826e-15 l 4.898587196589413e-15 -80 l 80 0 l 4.898587196589413e-15 -80 l -80 -9.797174393178826e-15 l 4.898587196589413e-15 -80 l -80 -9.797174393178826e-15 l -1.4695761589768237e-14 80 l -1.4695761589768237e-14 80 l -80 -9.797174393178826e-15 l 4.898587196589413e-15 -80 l -80 -9.797174393178826e-15 l 4.898587196589413e-15 -80 l 80 0 l 4.898587196589413e-15 -80 l -80 -9.797174393178826e-15 l -80 -9.797174393178826e-15 l 4.898587196589413e-15 -80 l 80 0 l 4.898587196589413e-15 -80 l 80 0 l 4.898587196589413e-15 80 l 80 0 l 4.898587196589413e-15 -80 l 4.898587196589413e-15 -80 l 80 0 l 4.898587196589413e-15 80 l 80 0 l 4.898587196589413e-15 -80 l 80 0 l 4.898587196589413e-15 -80 l -80 -9.797174393178826e-15 l -80 -9.797174393178826e-15 l 4.898587196589413e-15 -80 l 80 0 l 4.898587196589413e-15 -80 l -80 -9.797174393178826e-15 l 4.898587196589413e-15 -80 l -80 -9.797174393178826e-15 l -1.4695761589768237e-14 80 l -1.4695761589768237e-14 80 l -80 -9.797174393178826e-15 l 4.898587196589413e-15 -80 l -80 -9.797174393178826e-15 l -80 -9.797174393178826e-15 l 4.898587196589413e-15 -80 l -80 -9.797174393178826e-15 l -1.4695761589768237e-14 80 l -1.4695761589768237e-14 80 l -80 -9.797174393178826e-15 l 4.898587196589413e-15 -80 l -80 -9.797174393178826e-15 l 4.898587196589413e-15 -80 l 80 0 l 4.898587196589413e-15 -80 l -80 -9.797174393178826e-15 l -80 -9.797174393178826e-15 l 4.898587196589413e-15 -80 l 80 0 l 4.898587196589413e-15 -80 l 80 0 l 4.898587196589413e-15 80 l 80 0 l 4.898587196589413e-15 -80 l 4.898587196589413e-15 -80 l 80 0 l 4.898587196589413e-15 80 l 80 0 l 4.898587196589413e-15 -80 l 80 0 l 4.898587196589413e-15 -80 l -80 -9.797174393178826e-15 l -80 -9.797174393178826e-15 l 4.898587196589413e-15 -80 l 80 0 l 4.898587196589413e-15 -80 l -80 -9.797174393178826e-15 l 4.898587196589413e-15 -80 l -80 -9.797174393178826e-15 l -1.4695761589768237e-14 80 l -1.4695761589768237e-14 80 l -80 -9.797174393178826e-15 l 4.898587196589413e-15 -80 l -80 -9.797174393178826e-15 l 4.898587196589413e-15 -80 l 80 0 l 4.898587196589413e-15 -80 l -80 -9.797174393178826e-15 l -80 -9.797174393178826e-15 l 4.898587196589413e-15 -80 l 80 0 l 4.898587196589413e-15 -80 l -80 -9.797174393178826e-15 l 4.898587196589413e-15 -80 l -80 -9.797174393178826e-15 l -1.4695761589768237e-14 80 l -1.4695761589768237e-14 80 l -80 -9.797174393178826e-15 l 4.898587196589413e-15 -80 l -80 -9.797174393178826e-15 l -1.4695761589768237e-14 80 l -80 -9.797174393178826e-15 l -1.4695761589768237e-14 80 l 80 0 l 80 0 l 4.898587196589413e-15 80 l -80 9.797174393178826e-15 l 4.898587196589413e-15 80 l 4.898587196589413e-15 80 l -80 9.797174393178826e-15 l 4.898587196589413e-15 80 l 80 0 l 80 0 l 4.898587196589413e-15 80 l -80 9.797174393178826e-15 l 4.898587196589413e-15 80 l -80 9.797174393178826e-15 l -1.4695761589768237e-14 -80 l -80 9.797174393178826e-15 l 4.898587196589413e-15 80 l 4.898587196589413e-15 80 l -80 9.797174393178826e-15 l -1.4695761589768237e-14 -80 l -80 9.797174393178826e-15 l -1.4695761589768237e-14 -80 l 80 0 l 4.898587196589413e-15 -80 l -80 -9.797174393178826e-15 l -80 -9.797174393178826e-15 l 4.898587196589413e-15 -80 l 80 0 l 4.898587196589413e-15 -80 l -80 -9.797174393178826e-15 l 4.898587196589413e-15 -80 l -80 -9.797174393178826e-15 l -1.4695761589768237e-14 80 l -1.4695761589768237e-14 80 l -80 -9.797174393178826e-15 l 4.898587196589413e-15 -80 l -80 -9.797174393178826e-15 "></path></svg>