<?xml version="1.0" encoding="UTF-8"?><svg id="Layer_2" xmlns="http://www.w3.org/2000/svg" viewBox="0 0 185.14 216.48"><defs><style>.cls-1{fill:#fcb978;}.cls-2{fill:#be7c58;}.cls-3{fill:#c49c7c;}</style></defs><g id="Layer_1-2"><path class="cls-2" d="M53.75,0c7.74,9.16,8.02,13.98,20.53,21.2,6.87,3.97,9.79,12.23,13.24,20.57,4.42,10.7,14.67,13.02,17.34,17.95,8.63,15.89,15.63,11.83,27.26,30.09,7.92,12.42,2.56,11.68,13.62,26.47,10.69,14.3,15.22,12.93,21.84,25.79,0,0,3.59,6.51,9.16,14.78,.09,.14-.9,9.29,8.41,13.45-22.41,15.65-42.11,30.53-64.52,46.18-1.26-19.35-12.48-27.37-19.85-35.77-8.7-9.9-6.77-24.19-14.41-33.45-11.34-13.74-16.51-8.37-30.47-26-7.41-9.35-6.4-16.73-22.8-24.73-7.93-3.87-6.31-7.94-9.79-10.94-7.13-6.16-5.26-18.66-23.29-17.24C19.8,44.4,34.6,24.1,54.4,.14"/><path class="cls-3" d="M0,68.35C7.7,43.33-2.11,33.68,5.38,19.3c.18-.35,3.83-6.21,6.18-7.8C22.72,3.97,31.74,7.8,54.1,1.39"/><path class="cls-3" d="M185.14,170.3c-12.18,19.37-3.88,28.24-15.16,38.54-.26,.24-1.44,1.18-3.76,2.12-13.32,5.42-25.98-1.05-45.4,5.45"/><path class="cls-1" d="M32.44,59.47c17.54,28.21,24.73,24.37,48.54,59.55,.11,.16,17.28,18.23,20.3,22.31,4.64,6.26,11.01,19.34,13.96,21.79,4.23,3.51,20.06,27.19,22.41,27.73,1.32,.3-10.95-16.77-19.83-29.3-11.14-15.71-25.93-34.82-39.44-50.69-21.6-25.38-51.59-60.48-45.93-51.39Z"/></g></svg>