<?xml version="1.0" encoding="UTF-8"?><svg id="Layer_2" xmlns="http://www.w3.org/2000/svg" viewBox="0 0 233.4 163.5"><defs><style>.cls-1{fill:#fcb978;}.cls-2{fill:#be7c58;}.cls-3{fill:#c49c7c;}</style></defs><g id="Layer_1-2"><path class="cls-2" d="M.97,88.24c9.98-6.65,18.83-11.39,25.6-14.68,1.31-.64,6.93-3.35,14.68-6.48,11.14-4.51,16.91-5.94,22.18-7.85,13.91-5.03,13.9-9.61,32.42-20.82,11.12-6.73,19.81-10.33,36.86-17.41,16.49-6.84,24.73-10.26,31.06-11.26,0,0,12.86-2.04,22.25-5.4,.15-.06,1.39-.5,3.11-1.11,3.83-1.36,6.98-2.47,9.16-3.22,9.65,25.57,19.3,51.15,28.95,76.72-16.73,5.66-30.15,11.79-40.1,16.87-11.73,5.99-11.94,7.1-22.8,12.23-16.11,7.61-18.85,6.68-39.37,15.88-10.89,4.88-18.56,8.93-23.45,11.52-7.79,4.13-11.69,6.2-15.46,8.83-7.73,5.4-10.03,8.71-18.46,14.49-4.74,3.25-8.87,5.54-11.61,6.96C37.66,138.41,19.61,112.72,1.27,87.63"/><path class="cls-3" d="M57.43,163.5c-22.36-13.63-37.57-12.83-49.67-23.63-.3-.26-5.07-5.24-6.03-7.91-4.55-12.67,1.38-20.47,.67-43.72"/><path class="cls-3" d="M198.36,.08c15.78,16.58,26.43,13.44,33.64,26.92,.17,.31,.79,1.69,1.13,4.16,1.98,14.24-7.42,24.92-5.9,45.35"/><path class="cls-1" d="M35.98,91.5c31.66-10.06,49.38-25.87,89.34-40.28,.47-.17,23.37-9.04,28.48-12.76,4.44-3.24,34.31-14.44,35.41-16.58,.62-1.2-18.95,6.48-33.28,12.01-17.97,6.93-40.13,16.56-58.84,25.74-29.91,14.69-71.32,35.11-61.11,31.87Z"/></g></svg>