<svg version="1.2" xmlns="http://www.w3.org/2000/svg" viewBox="0 0 75 44" width="75" height="44">
	<title>nav-on</title>
	<style>
		.s0 { fill: #000000 } 
		.s1 { fill: none;stroke: #000000;stroke-width: 3 } 
	</style>
	<path id="Background" class="s0" d="m66 0h3.9l0.1 44h-3.9z"/>
	<path id="Shape 1" class="s1" d="m9 29c-3.9 0-7-3.1-7-7 0-3.9 3.1-7 7-7 3.9 0 7 3.1 7 7 0 3.9-3.1 7-7 7z"/>
	<path id="Shape 3 copy" class="s0" d="m23 24l0.1-4h11.1v4z"/>
	<path id="Shape 3 copy 2" class="s0" d="m34.3 13v-4h11.1v4z"/>
	<path id="Shape 3 copy 3" class="s0" d="m45.5 35v-4h11.2l-0.1 4z"/>
	<path id="Shape 3 copy 4" class="s0" d="m54.8 24v-4h11.2v4z"/>
	<path id="Shape 3 copy 5" class="s0" d="m32.4 9h3.7l-0.1 15h-3.7z"/>
	<path id="Shape 3 copy 6" class="s0" d="m43.6 9h3.7v15h-3.7z"/>
	<path id="Shape 3 copy 9" class="s0" d="m54.8 20h3.7v15h-3.7z"/>
	<path id="Shape 3 copy 8" class="s0" d="m43.6 9h3.7v15h-3.7z"/>
	<path id="Shape 3 copy 7" class="s0" d="m43.6 20h3.7v15h-3.7z"/>
</svg>